<?xml version="1.0" encoding="utf-8"?>
<!-- Generator: Adobe Illustrator 16.0.0, SVG Export Plug-In . SVG Version: 6.00 Build 0)  -->
<!DOCTYPE svg PUBLIC "-//W3C//DTD SVG 1.1//EN" "http://www.w3.org/Graphics/SVG/1.1/DTD/svg11.dtd">
<svg version="1.1" id="Слой_1" xmlns="http://www.w3.org/2000/svg" xmlns:xlink="http://www.w3.org/1999/xlink" x="0px" y="0px"
	 width="60px" height="60px" viewBox="0 0 39.689 39.689" enable-background="new 0 0 39.689 39.689" xml:space="preserve">
<circle fill="#FFFFFF" cx="19.899" cy="18.5" r="6.403"/>
<path fill="#0059b4" d="M19.845,9.384c-4.884,0-8.843,3.998-8.843,8.929c0,2.742,1.226,5.192,3.153,6.831l5.683,5.684l5.603-5.603
	c1.979-1.639,3.246-4.125,3.246-6.912C28.687,13.382,24.728,9.384,19.845,9.384z M19.845,23.421c-2.793,0-5.058-2.286-5.058-5.107
	c0-2.82,2.265-5.107,5.058-5.107c2.793,0,5.058,2.288,5.058,5.107C24.903,21.135,22.639,23.421,19.845,23.421z"/>
</svg>
